<?xml version="1.0" standalone="no"?>
<!DOCTYPE svg PUBLIC "-//W3C//DTD SVG 20010904//EN"
 "http://www.w3.org/TR/2001/REC-SVG-20010904/DTD/svg10.dtd">
<svg version="1.0" xmlns="http://www.w3.org/2000/svg"
 width="512.000000pt" height="512.000000pt" viewBox="0 0 512.000000 512.000000"
 preserveAspectRatio="xMidYMid meet">

<g transform="translate(0.000000,512.000000) scale(0.100000,-0.100000)"
fill="#000000" stroke="none">
<path d="M2423 4439 c-187 -18 -427 -96 -581 -190 -99 -60 -161 -111 -249
-202 -169 -177 -241 -328 -263 -550 -15 -149 2 -303 70 -643 33 -165 60 -318
60 -342 0 -121 -57 -253 -124 -284 -82 -40 -142 -31 -176 24 -29 48 -25 108
14 239 49 160 60 234 53 358 -16 304 -146 471 -365 471 -108 -1 -179 -45 -218
-139 -20 -47 -20 -136 0 -183 28 -65 112 -118 189 -118 25 0 27 -3 27 -39 0
-30 -7 -47 -31 -72 -45 -48 -60 -91 -58 -162 1 -57 -2 -67 -39 -123 -23 -33
-47 -82 -54 -108 -10 -40 -19 -51 -50 -67 -21 -11 -52 -32 -70 -48 -18 -15
-44 -32 -58 -36 -90 -27 -155 -144 -130 -235 5 -20 12 -86 14 -146 5 -128 27
-207 93 -336 46 -89 133 -195 197 -239 28 -18 36 -31 36 -54 0 -16 5 -48 11
-70 6 -22 14 -75 18 -117 6 -58 15 -88 34 -117 37 -56 88 -92 139 -98 24 -3
77 -22 118 -43 100 -51 178 -76 279 -90 185 -25 423 38 586 154 35 25 61 36
85 36 43 0 140 24 188 47 48 23 97 74 127 133 23 45 29 50 59 50 18 0 45 9 59
20 57 45 85 159 52 208 -15 21 -14 23 17 42 39 24 107 26 148 5 29 -15 29 -15
14 -52 -21 -48 -5 -107 43 -163 29 -33 41 -40 72 -40 35 0 38 -3 65 -61 52
-107 149 -170 287 -184 51 -6 75 -15 119 -45 77 -52 142 -83 237 -114 221 -69
417 -52 623 55 42 21 88 39 103 39 44 0 90 24 126 65 44 50 60 92 65 162 2 32
10 92 17 133 12 73 15 77 62 114 106 84 205 238 247 386 13 46 23 115 26 179
2 57 8 120 14 141 24 88 -36 204 -119 231 -20 7 -54 27 -75 46 -22 18 -55 38
-73 45 -23 8 -33 18 -33 33 -1 27 -33 96 -71 153 -28 41 -32 54 -30 109 2 71
-13 114 -58 162 -24 25 -31 42 -31 72 0 36 2 39 29 39 39 0 90 19 129 47 95
71 98 237 6 329 -53 54 -97 68 -193 62 -172 -10 -280 -124 -325 -342 -32 -155
-20 -292 43 -501 47 -153 38 -225 -31 -261 -27 -14 -39 -15 -85 -4 -100 22
-158 116 -169 269 -5 67 2 114 57 381 l63 305 0 210 c1 193 -1 216 -22 285
-75 236 -254 452 -494 593 -168 99 -382 167 -588 186 -127 12 -126 12 -257 0z
m422 -84 c265 -60 483 -178 641 -348 205 -221 274 -433 244 -742 -10 -104 -53
-330 -121 -645 -11 -47 -22 -139 -25 -205 -7 -132 7 -219 47 -298 24 -47 70
-110 76 -104 2 2 -10 33 -26 68 -31 65 -55 186 -49 236 l4 28 13 -30 c40 -97
123 -156 220 -157 65 0 113 28 140 86 30 60 26 105 -19 261 -70 243 -73 367
-13 548 47 141 147 220 278 220 99 1 161 -48 185 -145 25 -98 -47 -198 -142
-198 -71 0 -160 57 -194 123 -22 42 -26 28 -9 -31 11 -38 13 -62 6 -94 -39
-181 -16 -307 97 -533 59 -118 92 -218 92 -276 0 -90 -61 -216 -147 -308 -30
-30 -48 -41 -84 -46 -67 -10 -153 10 -250 58 -72 36 -85 40 -73 22 18 -28 92
-81 146 -105 171 -75 403 14 498 191 27 50 34 78 38 138 l5 74 18 -36 c33 -64
66 -181 79 -276 22 -168 -7 -318 -85 -441 l-27 -43 -22 39 c-18 33 -27 39 -59
42 -36 3 -43 -2 -118 -77 -100 -100 -148 -124 -252 -129 -72 -4 -84 -2 -144
28 -47 23 -97 63 -176 139 l-110 106 34 -65 c43 -83 136 -175 219 -219 55 -29
78 -36 146 -39 101 -5 161 13 243 73 l60 44 -14 -34 c-65 -155 -210 -312 -357
-386 -143 -72 -322 -91 -471 -50 -99 27 -121 38 -186 97 -61 55 -90 97 -240
344 -135 221 -149 241 -209 285 -59 43 -115 58 -208 58 -59 0 -84 -5 -127 -27
-78 -38 -130 -99 -245 -291 -206 -344 -267 -413 -399 -456 -96 -30 -256 -37
-357 -14 -214 47 -422 226 -511 439 l-15 36 61 -45 c72 -53 139 -75 225 -75
87 0 159 29 249 100 68 55 100 96 163 215 3 6 -44 -38 -105 -96 -79 -77 -129
-116 -177 -139 -62 -31 -71 -32 -148 -28 -107 6 -149 27 -250 129 -66 67 -83
79 -111 79 -36 0 -60 -19 -72 -59 l-8 -25 -20 25 c-27 33 -71 132 -88 199 -9
34 -13 101 -13 175 2 132 22 229 71 338 l28 62 6 -75 c8 -101 43 -174 114
-239 100 -91 232 -134 343 -112 77 15 151 55 203 107 l43 44 -85 -44 c-101
-52 -180 -71 -255 -61 -49 6 -58 11 -104 63 -67 76 -118 180 -126 257 -9 81
12 158 79 292 107 213 138 341 116 481 -14 85 -15 129 -4 182 l7 35 -31 -42
c-82 -112 -214 -134 -289 -49 -39 44 -47 93 -28 160 36 122 157 165 296 105
136 -59 208 -234 197 -479 -4 -97 -11 -137 -46 -255 -46 -157 -51 -217 -21
-275 29 -57 71 -83 134 -83 96 0 171 50 221 148 l26 50 -6 -84 c-6 -83 -31
-178 -61 -230 -11 -18 -5 -14 20 13 74 81 108 238 88 413 -7 60 -21 151 -33
203 -107 499 -125 621 -115 786 6 100 40 243 73 307 63 124 194 279 306 363
172 129 403 221 634 253 118 17 313 6 448 -24z m-1872 -1447 c3 -13 9 -45 13
-72 6 -46 5 -49 -12 -41 -11 4 -29 10 -41 12 -16 4 -22 14 -25 45 -3 33 0 43
22 58 32 25 37 25 43 -2z m3237 -52 c0 -37 -3 -44 -22 -49 -13 -2 -31 -8 -42
-12 -17 -7 -18 -4 -11 46 11 91 12 91 46 74 25 -14 29 -21 29 -59z m-3245
-130 c17 -40 11 -82 -17 -139 -22 -44 -51 -58 -90 -45 -50 18 -58 96 -16 165
23 39 44 52 81 53 23 0 31 -7 42 -34z m3275 24 c24 -13 56 -66 65 -108 14 -66
-37 -122 -92 -101 -48 18 -83 144 -54 197 13 24 49 29 81 12z m-3367 -258 c20
-2 37 -6 37 -8 0 -3 -19 -41 -41 -87 -117 -231 -116 -349 6 -542 17 -27 15
-26 -24 10 -87 81 -113 163 -104 320 5 80 3 93 -14 114 -17 21 -19 31 -11 60
15 57 80 152 98 144 8 -3 32 -8 53 -11z m3474 -31 c17 -27 37 -67 44 -90 11
-37 10 -46 -4 -71 -13 -22 -17 -54 -17 -147 0 -153 -14 -195 -87 -271 -44 -46
-51 -50 -33 -22 42 69 72 141 82 204 14 86 -7 179 -72 315 -28 57 -50 105 -50
107 0 2 15 4 33 4 17 0 39 5 47 10 22 14 22 14 57 -39z m-3652 -191 c6 -10
-55 -140 -65 -140 -3 1 -14 21 -26 45 -23 50 -21 56 41 88 36 19 42 20 50 7z
m3798 -20 c43 -27 60 -50 38 -50 -5 0 -15 -16 -22 -35 -7 -19 -15 -35 -19 -35
-11 0 -72 129 -65 140 9 15 16 13 68 -20z m-3939 -86 c38 -38 26 -131 -24
-184 -31 -33 -55 -37 -87 -15 -49 34 -33 138 29 190 34 29 60 32 82 9z m4091
-6 c32 -25 64 -91 65 -131 0 -33 -40 -77 -71 -77 -48 0 -113 121 -94 179 16
53 56 64 100 29z m-4092 -305 c-23 -145 -4 -297 52 -423 l25 -55 -33 37 c-89
100 -157 269 -165 411 l-5 88 34 -6 c24 -4 45 0 69 13 19 11 35 20 36 21 0 0
-6 -38 -13 -86z m4108 52 l32 7 -6 -88 c-9 -137 -78 -311 -162 -409 l-34 -40
34 85 c45 114 60 228 45 363 -6 56 -14 105 -16 109 -3 5 13 -1 35 -13 29 -15
49 -19 72 -14z m-1975 -375 c63 -31 109 -88 218 -270 55 -91 125 -205 157
-253 l59 -88 -38 7 c-121 21 -183 77 -245 221 -76 174 -124 244 -192 274 -84
38 -187 13 -243 -59 -33 -42 -60 -92 -131 -244 -64 -135 -105 -168 -233 -192
l-38 -7 73 113 c41 62 111 176 157 253 133 224 206 281 349 270 35 -2 83 -14
107 -25z m-1867 -190 c9 -31 62 -152 78 -180 2 -3 -18 -5 -44 -5 -27 -1 -55
-4 -64 -8 -22 -11 -29 17 -29 110 0 117 34 166 59 83z m3530 9 c12 -34 15
-149 5 -187 -5 -17 -11 -21 -23 -15 -9 4 -37 7 -63 8 -27 0 -47 2 -45 5 15 24
59 129 73 169 19 58 37 65 53 20z m-1603 -121 c29 -57 29 -58 5 -58 -33 0 -83
102 -65 131 9 15 25 -5 60 -73z m-311 52 c7 -22 -24 -98 -48 -118 -9 -8 -23
-12 -31 -10 -11 2 -7 18 21 76 37 75 48 85 58 52z m-1529 -189 c66 -40 116
-139 93 -183 -18 -34 -40 -47 -78 -48 -27 0 -43 9 -76 43 -111 110 -61 262 61
188z m3408 3 c42 -42 25 -128 -39 -191 -33 -34 -50 -43 -77 -43 -37 0 -72 25
-83 59 -7 22 25 103 53 135 46 51 116 71 146 40z m-3200 -188 c102 -83 288
-155 405 -157 42 0 44 -1 21 -11 -14 -6 -77 -11 -140 -12 -126 -1 -205 17
-327 75 l-62 30 19 32 c11 18 20 44 20 60 0 15 2 27 5 27 3 0 30 -20 59 -44z
m2956 15 c0 -15 10 -40 21 -55 12 -15 20 -28 18 -30 -31 -23 -93 -51 -169 -77
-87 -30 -105 -33 -215 -32 -145 0 -208 16 -99 26 133 11 297 80 393 164 45 40
51 40 51 4z"/>
<path d="M2168 3423 c-22 -6 -35 -50 -21 -72 13 -21 222 -72 246 -59 26 14 21
54 -10 76 -58 39 -170 68 -215 55z"/>
<path d="M2819 3373 c-60 -31 -75 -43 -77 -64 -2 -14 4 -31 13 -39 13 -11 32
-7 116 21 111 37 139 61 119 98 -18 34 -83 28 -171 -16z"/>
<path d="M2140 3193 c-8 -3 -27 -17 -42 -31 -26 -24 -27 -26 -9 -38 40 -28 25
-94 -21 -94 -18 0 -20 -4 -14 -31 29 -147 190 -169 242 -34 47 125 -49 267
-156 228z"/>
<path d="M2909 3177 c-93 -62 -93 -221 1 -284 79 -55 168 1 186 116 6 37 4 41
-13 41 -39 0 -49 28 -32 89 5 18 -56 61 -86 61 -12 0 -37 -10 -56 -23z"/>
<path d="M2529 3014 c-35 -52 -97 -100 -140 -109 -20 -5 -29 -13 -29 -27 0
-16 5 -19 25 -16 23 5 25 3 25 -37 0 -127 184 -172 273 -66 18 22 27 44 27 67
0 31 3 34 30 34 23 0 30 4 30 20 0 14 -7 20 -22 20 -35 0 -103 46 -131 89 -15
22 -27 45 -27 50 0 5 -7 11 -15 15 -10 3 -25 -10 -46 -40z m91 -102 c0 -20
-41 -30 -80 -20 -19 6 -37 12 -39 13 -2 2 12 22 30 44 l34 40 27 -32 c15 -18
27 -38 28 -45z"/>
<path d="M3126 2809 c-29 -23 -33 -41 -11 -59 33 -27 84 23 63 63 -11 22 -20
22 -52 -4z"/>
<path d="M3215 2800 c-21 -23 -13 -50 14 -50 23 0 45 34 37 56 -8 20 -30 17
-51 -6z"/>
<path d="M1957 2769 c-20 -27 -12 -49 18 -49 27 0 48 22 43 47 -5 27 -43 28
-61 2z"/>
<path d="M2051 2764 c-22 -16 -28 -48 -11 -59 16 -10 60 23 60 44 0 26 -23 33
-49 15z"/>
<path d="M900 2684 c0 -17 -9 -43 -21 -58 -23 -29 -15 -34 19 -10 23 16 29 57
12 84 -7 11 -10 8 -10 -16z"/>
<path d="M4207 2697 c-13 -34 -7 -66 15 -81 32 -22 45 -20 23 4 -10 11 -21 37
-24 58 -5 28 -8 33 -14 19z"/>
<path d="M500 2097 c0 -13 -9 -36 -21 -51 -15 -19 -17 -26 -6 -26 34 0 65 78
37 95 -6 3 -10 -4 -10 -18z"/>
<path d="M4607 2114 c-14 -14 -7 -61 11 -77 27 -25 50 -22 27 3 -9 10 -20 33
-24 50 -3 18 -9 28 -14 24z"/>
<path d="M868 1005 c16 -13 33 -39 38 -57 l8 -33 4 40 c3 32 -1 43 -18 57 -12
10 -31 18 -42 18 -17 0 -15 -3 10 -25z"/>
<path d="M4220 1010 c-13 -13 -20 -33 -20 -57 0 -28 3 -34 10 -23 5 8 10 22
10 32 0 9 14 28 31 42 27 23 28 26 10 26 -12 0 -30 -9 -41 -20z"/>
</g>
</svg>
